<?xml version="1.0" encoding="UTF-8"?>
<svg xmlns="http://www.w3.org/2000/svg" width="180" height="43" viewBox="0 0 180 43" fill="none">
  <g clip-path="url(#clip0_42_16843)">
    <path d="M60.8906 7.67285L52.875 29.0427H55.7227L57.4102 24.4335H68.0625L69.75 29.0427H72.5977L64.6875 7.67285H60.8906ZM58.3594 22.0242L62.7891 9.94252L67.2188 22.0242H58.3594Z" fill="#2D3748"></path>
    <path d="M77.8359 7.67285H75.2344V29.0427H77.8359V7.67285Z" fill="#2D3748"></path>
    <path d="M94.5703 15.6345C94.0078 14.8314 93.2344 14.1679 92.3203 13.6442C91.3711 13.1553 90.2812 12.876 89.0156 12.876C87.75 12.876 86.6602 13.0855 85.7461 13.4696C84.832 13.8886 84.0586 14.4473 83.4258 15.1456C82.793 15.8789 82.3008 16.717 81.9844 17.7296C81.6328 18.7422 81.4922 19.8247 81.4922 21.0119C81.4922 22.1991 81.6328 23.2816 81.9492 24.2942C82.2656 25.3068 82.7227 26.1448 83.3555 26.8781C83.9883 27.5765 84.7617 28.1352 85.7109 28.5542C86.6602 28.9732 87.75 29.1478 89.0508 29.1478C89.7891 29.1478 90.5273 29.0779 91.2656 28.9034C92.0039 28.7288 92.6719 28.4494 93.2695 28.1002C93.8672 27.7511 94.3945 27.2622 94.8164 26.7035C95.2383 26.1448 95.5547 25.4814 95.7305 24.7132H93.0937C92.9531 25.1322 92.7422 25.4465 92.4609 25.7258C92.1797 26.0052 91.8633 26.2496 91.4766 26.3893C91.125 26.5638 90.7383 26.6686 90.3164 26.7384C89.8945 26.8083 89.5078 26.8432 89.1211 26.8432C88.3477 26.8432 87.6445 26.7035 87.0469 26.4591C86.4492 26.2147 85.957 25.8655 85.5352 25.4115C85.1133 24.9576 84.7969 24.4338 84.5859 23.8402C84.3398 23.2466 84.1992 22.5832 84.1289 21.8848H96.0117C96.0469 21.7102 96.0469 21.5356 96.0469 21.3261C96.0469 21.1516 96.0469 20.977 96.0469 20.7675C96.082 19.9643 95.9766 19.0914 95.7656 18.1486C95.5547 17.3455 95.1328 16.4725 94.5703 15.6345ZM84.1641 19.7897C84.2344 19.1961 84.375 18.6025 84.5859 18.0438C84.7969 17.4852 85.1133 16.9963 85.5 16.5773C85.8867 16.1583 86.3789 15.8091 86.9414 15.5647C87.5039 15.3202 88.1719 15.2155 88.9102 15.2155C90.2812 15.2155 91.3359 15.6345 92.1797 16.4725C92.9883 17.3106 93.4102 18.4279 93.4453 19.7548H84.1641V19.7897Z" fill="#2D3748"></path>
    <path d="M112.254 13.085H109.23L105.293 19.1258L101.215 13.085H98.0859L103.535 20.9066L97.8398 29.0076H100.758L105.117 22.9318L109.582 29.0076H112.641L106.84 20.9764L112.254 13.085Z" fill="#2D3748"></path>
    <path d="M130.113 17.3102H118.582V7.67285H115.91V29.0078H118.582V19.7545H130.113V29.0078H132.75V7.67285H130.113V17.3102Z" fill="#2D3748"></path>
    <path d="M150.363 15.215C149.73 14.4817 148.922 13.923 148.008 13.5389C147.059 13.1199 145.969 12.9453 144.703 12.9453C143.438 12.9453 142.348 13.1548 141.363 13.5389C140.379 13.9579 139.57 14.5166 138.938 15.215C138.305 15.9483 137.813 16.7863 137.496 17.7989C137.18 18.8115 137.039 19.894 137.039 21.0812C137.039 22.2684 137.18 23.3509 137.496 24.3635C137.813 25.3761 138.305 26.2142 138.938 26.9474C139.57 27.6458 140.379 28.2045 141.293 28.6235C142.242 29.0425 143.332 29.2171 144.633 29.2171C145.934 29.2171 147.023 29.0076 147.973 28.6235C148.922 28.2045 149.73 27.6458 150.363 26.9474C150.996 26.2491 151.488 25.3761 151.805 24.3635C152.121 23.3509 152.262 22.2684 152.262 21.0812C152.262 19.894 152.121 18.8115 151.805 17.7989C151.488 16.7863 150.996 15.9483 150.363 15.215ZM149.414 23.3858C149.238 24.0842 148.922 24.7127 148.5 25.2365C148.078 25.7602 147.551 26.1792 146.918 26.4935C146.285 26.8078 145.512 26.9474 144.668 26.9474C143.789 26.9474 143.051 26.8078 142.418 26.4935C141.785 26.1792 141.258 25.7602 140.836 25.2365C140.414 24.7127 140.133 24.0842 139.922 23.3858C139.746 22.6874 139.641 21.9192 139.641 21.0812C139.641 20.2781 139.746 19.5099 139.922 18.8115C140.098 18.1132 140.414 17.4847 140.836 16.926C141.258 16.4022 141.785 15.9832 142.418 15.6689C143.051 15.3547 143.789 15.215 144.668 15.215C145.547 15.215 146.285 15.3547 146.918 15.6689C147.551 15.9832 148.078 16.4022 148.5 16.926C148.922 17.4497 149.203 18.0783 149.414 18.8115C149.59 19.5099 149.695 20.2781 149.695 21.0812C149.695 21.8843 149.59 22.6525 149.414 23.3858Z" fill="#2D3748"></path>
    <path d="M165.305 20.6273C165.059 20.5574 164.777 20.4527 164.391 20.3829C164.039 20.313 163.652 20.2432 163.266 20.1733C162.879 20.1035 162.457 20.0337 162.07 19.9638C161.648 19.894 161.297 19.8242 160.945 19.7543C160.102 19.5797 159.434 19.3353 158.906 18.9861C158.379 18.637 158.133 18.1132 158.133 17.4497C158.168 16.9609 158.273 16.5768 158.555 16.2974C158.801 16.0181 159.117 15.7737 159.469 15.634C159.82 15.4943 160.172 15.3896 160.559 15.3197C160.945 15.2848 161.297 15.2499 161.684 15.2499C162.668 15.2848 163.441 15.4594 164.074 15.8086C164.707 16.1578 165.094 16.6466 165.234 17.2402H167.625C167.555 16.6117 167.344 16.0181 167.027 15.4594C166.711 14.9007 166.254 14.4119 165.656 13.9929C164.672 13.2945 163.371 12.9453 161.719 12.9453C160.945 12.9453 160.207 13.0151 159.539 13.1548C158.836 13.2945 158.203 13.5389 157.605 13.923C157.043 14.2722 156.586 14.761 156.199 15.3197C155.848 15.8784 155.637 16.6117 155.602 17.5196C155.602 18.3576 155.777 19.0909 156.129 19.6496C156.48 20.2432 156.937 20.6971 157.5 21.0463C157.922 21.3256 158.379 21.5002 158.871 21.6748C159.363 21.8494 159.855 21.9542 160.383 22.0589C160.91 22.1637 161.402 22.2684 161.93 22.3732C162.457 22.4779 162.949 22.5478 163.441 22.6525C164.145 22.7922 164.672 23.0017 165.059 23.316C165.445 23.6302 165.656 24.0842 165.656 24.6778C165.656 25.2365 165.516 25.6555 165.27 25.9348C164.988 26.2491 164.672 26.4586 164.285 26.5983C163.898 26.7379 163.477 26.8427 163.055 26.8776C162.633 26.9125 162.246 26.9474 161.93 26.9474C161.473 26.9474 161.086 26.9125 160.734 26.8427C160.383 26.7729 159.996 26.6681 159.609 26.4935C159.223 26.3189 158.836 26.1094 158.484 25.8301C158.133 25.5507 157.887 25.1666 157.711 24.6778H155.109C155.215 25.5507 155.496 26.2491 155.953 26.8427C156.375 27.4014 156.902 27.8902 157.535 28.2394C158.168 28.5886 158.836 28.833 159.574 28.9727C160.312 29.1124 161.051 29.1822 161.789 29.1822C162.527 29.1822 163.301 29.1124 164.039 28.9727C164.812 28.833 165.48 28.5886 166.078 28.2394C166.676 27.8902 167.168 27.4363 167.555 26.8427C167.941 26.2491 168.152 25.4809 168.187 24.5032C168.223 22.5129 167.238 21.2209 165.305 20.6273Z" fill="#2D3748"></path>
    <path d="M179.684 15.3545V13.0848H175.395V8.33594H172.793V13.0848H170.191V15.3545H172.793V23.8745C172.793 25.6553 173.18 26.9472 173.953 27.7853C174.727 28.6233 176.027 29.0074 177.855 29.0074H179.578V26.7727H178.383C177.223 26.7727 176.449 26.5282 176.027 26.0045C175.605 25.4807 175.395 24.6776 175.395 23.5951V15.3545H179.684Z" fill="#2D3748"></path>
    <path d="M15.75 9.76758L11.7773 11.6881V15.6687L15.75 13.8181V9.76758Z" fill="#F05243"></path>
    <path d="M36.7383 0.200195H5.44922C2.84766 0.200195 0.703125 2.3302 0.703125 4.91413V30.2995C0.703125 32.8835 2.8125 34.1754 5.23828 35.3627L21.0938 42.8002L36.9492 35.3976C39.375 34.2104 41.4844 32.9184 41.4844 30.3345V4.91413C41.4844 2.3302 39.3398 0.200195 36.7383 0.200195ZM19.8633 26.284L15.75 24.3984V17.9036L11.7773 19.7543V24.2936L7.69922 26.284V9.52331L19.8633 3.93642V26.284ZM34.3125 33.1977L30.2695 31.2772V26.7379L26.1914 24.8872V29.4615L22.1484 27.541V10.92L26.1914 12.8405V20.732L30.2695 22.6525V14.6563L34.3125 16.5768V33.1977Z" fill="#F05243"></path>
  </g>
  <defs>
    <clipPath id="clip0_42_16843">
      <rect width="180" height="42.6" fill="white" transform="translate(0 0.200195)"></rect>
    </clipPath>
  </defs>
</svg>
